<?xml version="1.0" standalone="no"?>
<!DOCTYPE svg PUBLIC "-//W3C//DTD SVG 20010904//EN"
 "http://www.w3.org/TR/2001/REC-SVG-20010904/DTD/svg10.dtd">
<svg version="1.0" xmlns="http://www.w3.org/2000/svg"
 width="300.000000pt" height="300.000000pt" viewBox="0 0 300.000000 300.000000"
 preserveAspectRatio="xMidYMid meet">
<metadata>
Created by potrace 1.12, written by Peter Selinger 2001-2015
</metadata>
<g transform="translate(0.000000,300.000000) scale(0.100000,-0.100000)"
fill="#000000" stroke="none">
<path d="M0 1500 l0 -1500 1500 0 1500 0 0 1500 0 1500 -1500 0 -1500 0 0
-1500z m1675 1476 c19 -8 40 -26 47 -40 9 -20 19 -26 43 -26 18 0 43 -8 56
-19 23 -18 23 -18 12 -147 -12 -137 -39 -241 -92 -347 -27 -56 -28 -61 -13
-89 11 -22 13 -46 8 -92 -8 -74 -55 -241 -78 -276 -22 -34 -42 -206 -42 -371
l-1 -136 55 -51 c69 -64 90 -66 111 -9 23 62 11 295 -21 393 -23 72 -23 72 -4
105 12 21 32 38 52 44 18 5 32 15 32 23 0 36 87 82 104 54 3 -5 -8 -6 -24 -4
-33 5 -70 -26 -70 -58 0 -15 -7 -20 -25 -20 -29 0 -62 -29 -70 -62 -3 -13 4
-50 15 -83 16 -44 24 -99 29 -205 7 -126 6 -151 -9 -190 -26 -67 -54 -67 -128
4 l-57 55 1 138 c0 170 20 337 44 379 25 43 69 201 76 272 5 43 2 66 -9 89
-16 30 -15 33 17 99 52 105 76 197 88 331 11 114 10 124 -7 143 -10 11 -31 20
-48 20 -22 0 -38 10 -61 35 -42 48 -80 54 -129 20 -35 -23 -42 -24 -71 -14
-42 15 -77 6 -120 -31 -33 -29 -35 -30 -85 -18 -47 10 -54 10 -79 -9 -19 -14
-29 -32 -32 -59 -5 -35 -8 -39 -35 -40 -17 -1 -40 -6 -52 -13 -24 -12 -74
-110 -92 -177 -9 -35 -16 -42 -48 -50 -54 -13 -88 -81 -88 -179 -1 -53 -6 -77
-20 -100 -16 -23 -20 -44 -18 -104 1 -42 -3 -84 -9 -95 -6 -11 -12 -45 -13
-75 -2 -31 -9 -90 -15 -131 -14 -90 -14 -136 1 -173 9 -20 8 -38 -1 -72 -10
-37 -10 -52 3 -97 20 -68 27 -150 16 -198 -6 -28 -4 -50 7 -82 21 -59 30 -234
14 -282 -15 -46 -16 -104 -1 -119 6 -6 11 -27 11 -46 0 -20 7 -48 14 -63 14
-27 14 -28 -10 -34 -13 -3 -43 -3 -67 0 -23 3 -73 7 -111 7 -65 2 -72 0 -94
-26 -27 -32 -25 -57 14 -115 25 -37 26 -43 19 -124 -10 -113 -1 -126 102 -160
72 -24 91 -26 253 -26 143 0 180 3 198 16 12 8 22 22 22 30 0 20 37 54 59 54
11 0 33 -11 49 -25 46 -39 89 -34 137 15 21 22 44 40 51 40 6 0 19 -19 29 -42
34 -86 70 -103 169 -76 34 9 51 9 70 0 24 -11 26 -16 26 -79 0 -92 19 -113
106 -113 78 0 93 13 77 73 -8 27 -8 48 -2 59 11 20 34 24 44 8 3 -5 26 -10 50
-10 51 0 62 12 89 95 12 37 26 57 56 78 33 23 40 34 40 62 0 41 22 65 59 65
53 0 81 61 81 176 0 66 -2 74 -26 93 -18 14 -41 21 -72 21 -38 0 -50 -5 -84
-40 -31 -30 -48 -40 -73 -40 -43 0 -205 89 -205 112 0 41 108 128 158 128 32
0 115 -41 135 -66 15 -19 28 -24 68 -24 47 0 49 2 69 40 28 55 27 143 -3 191
-12 20 -37 62 -56 94 -26 44 -44 61 -76 75 -24 10 -45 24 -47 32 -5 14 8 48
70 178 64 137 73 207 40 335 -18 72 -96 221 -122 233 -13 6 -39 24 -59 41 -50
45 -91 57 -121 38 -33 -22 -37 -50 -15 -94 14 -28 16 -40 7 -48 -8 -7 -9 -7
-5 1 4 6 -2 28 -13 48 -23 47 -12 89 29 106 35 14 86 -4 138 -51 20 -17 46
-35 59 -41 13 -6 24 -17 24 -24 0 -7 16 -43 35 -80 93 -178 94 -304 6 -481
-68 -136 -72 -149 -53 -166 10 -7 31 -19 47 -26 19 -7 41 -30 60 -62 17 -28
42 -72 57 -98 36 -61 38 -147 5 -206 -21 -38 -25 -40 -75 -43 -46 -3 -55 0
-77 24 -28 30 -95 64 -127 64 -11 0 -29 -5 -41 -11 -31 -16 -107 -91 -107
-106 0 -6 38 -32 84 -57 92 -51 139 -58 156 -25 17 31 70 59 113 59 43 0 92
-22 101 -45 12 -31 6 -153 -9 -196 -18 -50 -38 -69 -75 -69 -34 0 -50 -17 -50
-54 0 -37 -5 -45 -51 -79 -26 -19 -40 -41 -53 -81 -9 -31 -24 -62 -32 -71 -17
-17 -109 -21 -119 -5 -3 5 -10 10 -15 10 -15 0 -19 -28 -8 -64 8 -26 8 -42 0
-61 -11 -23 -16 -25 -86 -25 -69 0 -76 2 -95 26 -17 21 -21 41 -21 95 0 65 -1
69 -26 75 -14 4 -43 2 -64 -5 -47 -14 -95 -14 -122 0 -11 6 -31 36 -44 66
l-25 56 -42 -41 c-38 -37 -48 -42 -88 -42 -36 0 -51 5 -69 25 -13 14 -31 25
-40 25 -20 0 -45 -26 -55 -58 -4 -13 -18 -27 -32 -33 -13 -5 -101 -9 -196 -9
-159 0 -177 2 -255 27 -108 35 -117 50 -107 169 6 75 5 86 -14 113 -37 52 -44
85 -27 120 22 41 56 48 183 38 58 -4 107 -7 108 -5 4 4 -10 69 -30 137 -9 34
-9 55 -1 85 17 64 13 252 -7 311 -12 36 -14 60 -8 86 11 47 4 130 -16 197 -13
45 -13 60 -3 97 9 34 10 52 1 72 -15 37 -15 83 -1 173 6 41 13 100 15 131 1
30 7 64 13 75 6 11 10 53 9 94 -1 57 3 84 18 110 12 23 19 57 20 100 1 44 9
82 24 117 20 44 29 54 63 65 36 12 41 19 62 78 44 125 79 166 137 162 26 -2
29 1 29 28 0 69 49 100 127 81 43 -11 48 -10 62 7 34 42 102 63 141 42 14 -7
29 -4 62 15 50 29 57 30 103 11z m-5 -100 c0 -44 -59 -276 -73 -291 -14 -13
-44 -124 -62 -227 -5 -24 -14 -39 -26 -43 -47 -15 -50 22 -13 161 21 79 24
102 14 117 -9 16 -2 45 41 168 28 82 53 148 55 146 4 -4 -15 -64 -60 -192 -30
-84 -33 -102 -22 -115 11 -13 9 -31 -15 -115 -32 -113 -37 -165 -15 -165 21 0
21 2 51 135 15 66 35 129 44 140 16 18 71 235 71 277 0 41 -18 22 -39 -40 -54
-161 -74 -212 -81 -212 -5 0 0 17 10 38 10 20 29 75 43 122 39 132 45 144 62
130 8 -7 15 -22 15 -34z m-167 -28 c0 -13 -6 -73 -13 -133 -9 -78 -17 -114
-29 -123 -13 -11 -16 -30 -14 -105 1 -51 7 -114 12 -142 10 -52 0 -82 -22 -68
-6 4 -24 6 -39 5 l-28 -2 0 130 c0 72 -4 139 -9 148 -19 37 52 322 80 322 5 0
-1 -15 -12 -34 -24 -41 -71 -267 -58 -281 5 -5 9 -68 9 -140 l0 -130 40 -1
c33 -1 40 2 35 15 -2 9 -9 61 -15 115 -11 104 -6 164 15 181 15 12 45 240 34
257 -5 7 -9 10 -11 8 -26 -40 -40 -85 -59 -187 -12 -68 -24 -121 -27 -118 -2
2 6 57 18 122 21 109 37 158 63 191 13 17 30 1 30 -30z m-174 -44 c9 -20 9
-52 0 -137 -6 -62 -16 -120 -21 -130 -6 -12 -1 -48 18 -115 40 -146 40 -152 6
-186 -17 -16 -35 -25 -42 -21 -23 14 -47 92 -54 175 -5 50 -14 92 -22 101 -11
13 -12 30 -4 95 16 129 50 247 66 231 3 -3 -1 -18 -9 -34 -21 -40 -35 -96 -47
-193 -9 -73 -8 -87 5 -96 12 -9 17 -37 21 -100 5 -82 31 -165 52 -164 16 1 52
39 52 55 0 9 -11 54 -24 99 -34 111 -39 145 -28 159 5 7 15 63 21 125 9 91 9
116 -1 131 -12 17 -16 8 -35 -73 -12 -50 -25 -117 -28 -148 -5 -45 -10 -58
-23 -58 -12 0 -13 3 -5 8 7 5 15 30 19 58 10 88 48 244 60 244 6 0 16 -12 23
-26z m441 -36 c0 -139 -67 -326 -170 -478 -31 -46 -44 -57 -60 -53 -18 5 -20
1 -20 -43 0 -55 -5 -66 -37 -83 -49 -25 -55 -17 -48 62 6 62 11 76 36 100 33
31 59 35 59 10 0 -14 -2 -15 -9 -4 -7 10 -15 7 -39 -15 -25 -24 -31 -39 -37
-92 -6 -63 -6 -64 17 -57 39 12 47 25 50 78 3 45 6 52 25 55 21 3 63 60 126
172 55 97 97 247 96 345 l0 60 -14 -35 c-7 -19 -28 -75 -46 -125 -18 -49 -35
-92 -38 -95 -19 -17 -105 -213 -112 -255 l-8 -50 4 58 c2 40 12 73 34 111 17
30 30 60 28 67 -2 8 -2 10 1 5 7 -14 74 131 107 233 36 109 55 119 55 29z
m-53 25 c-15 -30 -46 -107 -62 -155 -10 -32 -21 -56 -23 -53 -9 9 70 215 83
215 3 0 4 -3 2 -7z m-553 -215 c14 -74 15 -105 8 -128 -10 -26 -6 -38 35 -111
l46 -81 -17 -74 c-11 -45 -23 -74 -31 -74 -8 0 -25 43 -44 113 -17 61 -38 117
-47 124 -11 8 -21 46 -32 117 -13 89 -14 111 -2 146 7 22 15 38 18 36 2 -3 -1
-21 -8 -41 -17 -51 5 -219 30 -243 10 -10 23 -37 30 -62 33 -129 52 -183 60
-169 4 7 13 38 20 67 l12 52 -47 83 c-44 76 -46 84 -35 115 9 26 8 52 -6 132
l-18 99 -12 -58 c-8 -39 -9 -72 -3 -98 5 -21 8 -51 7 -68 0 -16 -5 -2 -10 33
-5 34 -13 62 -18 62 -4 0 -2 17 6 38 7 20 13 49 14 63 0 28 10 44 20 32 4 -5
15 -52 24 -105z m335 -25 c-1 -16 -5 -39 -10 -53 -9 -25 -9 -25 -5 3 2 15 -1
27 -7 27 -6 0 -7 -19 -4 -47 4 -31 3 -41 -3 -28 -10 24 -13 109 -3 118 16 16
33 5 32 -20z m120 -5 c0 -22 -1 -22 -8 -3 -7 17 -9 15 -16 -15 -4 -19 -10 -30
-12 -24 -5 16 15 64 27 64 5 0 10 -10 9 -22z m-261 -85 l-1 -68 -7 50 c-6 41
-7 44 -8 16 -2 -42 -7 -38 -15 11 -4 29 -3 36 9 31 8 -3 14 0 14 5 0 6 -8 13
-17 15 -14 4 -12 5 5 6 21 1 22 -2 20 -66z m-318 -68 c31 -49 44 -82 45 -110
3 -59 1 -56 50 -108 35 -38 45 -56 45 -82 0 -51 -15 -50 -50 5 -18 27 -36 47
-41 44 -17 -10 -9 -32 17 -53 32 -25 24 -28 -11 -5 -24 16 -36 64 -15 64 5 0
7 7 4 15 -5 11 -11 12 -24 5 -42 -22 -140 146 -125 215 14 67 16 77 21 73 2
-3 0 -26 -5 -51 -8 -34 -7 -56 4 -94 18 -61 80 -136 105 -128 19 6 65 -43 95
-102 l15 -28 0 28 c0 34 -28 79 -44 70 -6 -3 -8 -3 -4 2 4 4 -6 24 -23 43 -26
30 -30 41 -25 71 5 31 -1 47 -39 106 -42 67 -44 69 -50 42 -4 -15 -5 -44 -1
-65 5 -32 4 -34 -5 -12 -11 26 -8 71 6 104 6 14 5 17 -3 12 -8 -5 -10 -2 -6 9
8 20 9 18 64 -70z m183 13 c4 -28 4 -54 2 -57 -3 -2 -5 7 -5 20 0 16 -3 20 -8
11 -6 -9 -12 -5 -20 15 -11 26 -11 27 3 9 14 -19 15 -18 15 13 0 30 -2 32 -17
20 -16 -13 -17 -12 -4 4 21 27 28 21 34 -35z m-81 -163 c3 -15 1 -22 -5 -18
-7 4 -8 -1 -3 -12 7 -18 6 -18 -14 0 -11 10 -20 28 -19 39 0 20 1 20 9 -1 13
-31 24 -29 16 3 -4 15 -3 23 2 20 5 -3 12 -17 14 -31z m272 -6 c7 -35 8 -149
2 -149 -2 0 -11 -2 -18 -5 -9 -4 -28 15 -53 50 l-38 56 38 39 c47 48 61 50 69
9z m232 -8 c-9 -17 -27 -38 -40 -46 -18 -12 -25 -28 -30 -73 -7 -60 -25 -137
-31 -131 -1 2 4 36 12 74 8 39 13 82 11 97 -3 20 1 29 19 37 13 6 33 27 45 46
25 43 36 40 14 -4z m20 -39 c-29 -137 -100 -272 -143 -272 -12 0 -14 10 -9 48
3 26 8 81 12 122 8 96 15 111 55 134 l34 19 -36 -34 c-35 -33 -37 -38 -43
-119 -4 -47 -9 -103 -13 -125 l-5 -40 22 20 c51 45 97 149 120 268 7 32 14 57
16 54 2 -2 -2 -36 -10 -75z m-680 -4 c30 -28 60 -63 67 -77 7 -14 34 -38 60
-52 74 -40 83 -51 62 -82 l-17 -26 -48 19 c-144 57 -174 76 -195 127 -8 20
-15 57 -15 83 0 77 12 78 86 8z m338 -46 c25 -37 46 -78 46 -89 0 -44 -15 -40
-133 38 -13 9 13 119 29 119 7 0 33 -31 58 -68z m174 -54 c7 -9 5 -51 -5 -133
-18 -140 -21 -521 -4 -575 9 -31 10 -28 5 25 -9 86 -4 362 6 415 8 38 8 35 4
-22 -3 -37 -5 -134 -5 -215 0 -221 27 -330 103 -420 l32 -38 -33 30 c-18 17
-43 50 -56 75 -13 25 -24 39 -25 32 -1 -44 75 -136 126 -152 21 -6 23 -9 9 -9
-11 -1 -34 8 -52 19 -126 77 -171 392 -119 840 8 63 12 118 9 123 -9 15 -59
-6 -89 -38 -28 -31 -32 -47 -54 -184 -23 -145 -23 -152 -6 -164 17 -13 17 -16
0 -71 -20 -63 -19 -64 35 -96 12 -7 13 -15 3 -48 -16 -52 -15 -85 1 -79 6 2
12 16 11 30 0 15 3 27 7 27 4 0 7 -13 7 -30 -1 -16 -5 -30 -10 -30 -5 0 -5 -7
0 -16 5 -10 6 -32 1 -53 -5 -20 -9 -49 -9 -64 0 -37 23 -31 31 9 6 28 7 28 8
3 0 -14 -2 -29 -6 -32 -3 -4 -7 -17 -8 -30 -1 -12 -8 -53 -15 -91 -12 -64 -11
-70 5 -82 16 -12 17 -18 6 -55 -7 -23 -15 -47 -17 -54 -3 -8 6 -21 21 -31 l26
-17 102 101 c56 56 107 102 113 102 6 0 -37 -47 -96 -105 -58 -58 -113 -105
-121 -105 -7 0 -25 9 -38 19 l-24 18 18 53 c16 49 16 54 1 62 -19 11 -20 33
-2 118 12 56 12 67 0 76 -8 6 -14 26 -15 45 0 19 -3 28 -6 22 -9 -24 -31 -13
-77 38 -48 54 -58 76 -28 64 9 -4 22 -8 29 -8 7 0 10 -4 8 -8 -3 -3 2 -13 11
-20 12 -10 20 -10 35 -1 26 16 29 15 30 -10 0 -22 1 -22 9 -3 6 15 3 24 -11
37 -10 9 -19 28 -19 42 0 18 -4 24 -15 20 -8 -4 -15 -15 -15 -25 0 -23 -2 -23
-64 -4 -65 20 -76 19 -76 -5 0 -24 -18 -26 -35 -3 -13 17 -50 28 -39 12 3 -5
9 -7 14 -4 4 2 13 -9 20 -26 11 -25 11 -32 0 -39 -9 -6 -7 -10 9 -15 23 -7 29
-47 11 -75 -6 -10 -8 -3 -3 23 5 33 3 39 -16 44 -22 6 -29 29 -11 35 7 2 5 11
-4 23 -13 17 -15 18 -16 3 0 -17 -57 -38 -143 -53 -20 -4 -40 -12 -43 -17 -3
-5 -17 -13 -30 -18 -25 -10 -33 -30 -12 -30 33 0 184 44 195 57 9 12 14 11 30
-7 17 -17 47 -90 38 -90 -2 0 -13 20 -25 45 -21 43 -34 55 -42 37 -5 -13 -198
-56 -208 -46 -6 6 -3 28 7 55 l17 46 89 17 c49 9 91 15 93 13 3 -2 -36 -12
-86 -22 -49 -10 -90 -21 -90 -25 0 -5 -3 -17 -7 -27 -6 -17 -6 -17 14 0 11 9
28 17 39 18 10 0 48 8 84 18 55 14 66 20 68 40 3 21 1 23 -25 18 -85 -17 -194
-30 -200 -24 -3 4 -2 24 3 45 9 36 10 37 59 38 l50 2 -44 -7 c-25 -3 -46 -12
-49 -20 -3 -10 3 -12 24 -8 16 3 47 8 69 11 31 4 34 3 15 -4 -14 -4 -46 -11
-72 -15 -34 -4 -48 -11 -48 -22 0 -17 19 -16 158 8 l63 11 -23 25 c-16 18 -31
23 -50 21 -16 -3 -28 -1 -28 4 0 4 15 8 34 8 27 0 40 -7 60 -32 14 -18 26 -28
26 -22 0 6 -9 23 -21 38 -24 31 -14 39 47 34 40 -3 58 -28 36 -50 -6 -6 -8 0
-5 16 5 25 3 26 -42 26 -41 0 -45 -2 -32 -15 8 -8 26 -31 39 -52 21 -34 23
-36 26 -15 4 26 20 28 88 7 27 -8 50 -15 50 -15 1 0 4 9 7 21 3 11 14 23 25
26 11 3 23 17 27 31 5 20 1 30 -17 44 -13 10 -26 18 -30 18 -12 0 -9 34 7 80
14 40 14 45 -2 62 -16 18 -15 27 6 166 13 81 30 159 37 173 17 35 54 58 105
68 4 0 11 -5 17 -11z m-216 -40 c66 -41 68 -44 64 -77 -3 -18 -7 -35 -9 -37
-2 -2 -33 8 -69 22 -69 28 -78 40 -78 110 0 33 12 30 92 -18z m853 -99 c24
-30 44 -62 46 -70 5 -27 -13 -99 -24 -99 -29 1 -64 47 -70 94 -7 48 -32 110
-64 156 -9 14 -11 19 -3 13 21 -19 34 -16 19 5 -7 9 2 4 20 -13 18 -16 52 -55
76 -86z m-1173 62 c83 -38 195 -74 206 -67 11 6 47 -82 38 -91 -14 -15 -79
-10 -166 13 -79 20 -100 30 -127 59 -26 27 -33 43 -33 75 0 22 4 40 9 40 4 0
37 -13 73 -29z m310 -72 c55 -23 58 -26 58 -59 0 -54 -11 -63 -59 -55 -24 4
-44 12 -45 18 -2 7 -11 35 -20 62 -19 60 -20 69 -3 62 6 -3 38 -15 69 -28z
m669 -34 c12 8 84 -67 106 -108 13 -27 14 -38 2 -85 -23 -96 -65 -78 -79 35
-5 38 -19 91 -32 118 -28 62 -32 75 -18 52 6 -9 16 -15 21 -12z m-366 -12
c-27 -108 -33 -447 -11 -566 8 -41 25 -95 37 -119 16 -31 17 -39 6 -30 -20 17
-43 86 -58 177 -13 79 -6 443 10 510 10 40 6 63 -5 29 -12 -40 -25 -66 -29
-62 -3 2 3 23 12 46 18 48 50 60 38 15z m-560 -38 c77 -20 143 -39 147 -43 4
-4 10 -22 14 -39 6 -30 4 -32 -27 -38 -45 -8 -147 9 -203 34 -28 12 -53 33
-66 53 -20 33 -27 68 -12 68 4 0 70 -16 147 -35z m1214 -84 c14 -86 14 -138 1
-146 -5 -3 -10 -15 -10 -25 0 -15 -51 -135 -116 -276 l-15 -31 -107 4 c-59 3
-113 7 -121 9 -18 6 54 82 124 130 28 19 73 51 100 71 28 20 44 29 37 21 -7
-9 -37 -33 -67 -54 -30 -20 -52 -41 -49 -46 12 -19 139 81 148 117 4 14 11 25
16 25 6 0 10 4 10 9 0 5 -9 7 -20 4 -18 -5 -19 -2 -13 28 11 56 31 125 32 109
0 -8 -6 -41 -14 -73 -12 -52 -12 -58 2 -53 27 11 35 -5 15 -28 -11 -11 -22
-30 -24 -41 -3 -19 -85 -89 -123 -105 -11 -4 -25 -4 -31 1 -8 6 -34 -11 -78
-51 l-66 -60 95 -2 c52 -1 103 -2 112 -2 13 -1 34 36 80 134 34 74 61 144 60
156 -1 12 4 29 12 38 10 12 12 33 7 81 -9 94 -17 107 -32 59 l-13 -39 5 40
c12 89 27 88 43 -4z m-947 39 c35 -10 37 -12 31 -43 -8 -44 -15 -49 -56 -42
-49 10 -64 24 -70 69 l-6 38 31 -6 c18 -3 49 -11 70 -16z m562 -20 c-5 17 10
6 50 -40 31 -36 56 -74 56 -85 0 -22 -53 -182 -64 -192 -7 -7 12 56 38 126 9
24 16 50 16 59 0 20 -49 84 -60 77 -4 -2 -10 5 -13 17 -4 12 -9 19 -13 15 -4
-3 -2 -26 4 -49 6 -24 13 -86 16 -138 l5 -95 -13 110 c-16 128 -25 173 -37
181 -5 3 -9 13 -9 22 1 13 5 10 16 -8 l15 -25 -7 25z m269 -37 c7 3 11 11 9
18 -1 8 7 3 18 -10 33 -39 26 -68 -25 -93 -42 -21 -55 -14 -44 25 4 18 11 46
15 62 5 22 8 25 11 12 3 -10 10 -16 16 -14z m-1190 -8 c26 -8 82 -17 125 -20
112 -9 116 -11 135 -51 21 -43 18 -50 -21 -36 -17 6 -35 6 -43 1 -8 -4 -23 -6
-34 -4 -11 2 -55 7 -98 10 -89 8 -121 28 -132 83 -8 37 -3 39 68 17z m339 -39
c31 -9 60 -21 64 -27 9 -16 -17 -99 -32 -99 -37 0 -62 22 -87 74 -30 62 -33
81 -14 73 6 -2 38 -12 69 -21z m641 -78 l-10 -43 1 63 c1 45 3 57 10 42 5 -12
5 -37 -1 -62z m292 22 c-9 -41 -17 -33 -9 9 4 17 9 30 11 27 3 -2 2 -19 -2
-36z m-86 -27 c-5 -16 -16 -32 -23 -38 -15 -12 -39 -55 -34 -60 10 -10 68 59
68 80 0 13 4 26 9 29 5 3 5 -12 -1 -36 -5 -23 -10 -43 -11 -43 -1 -1 -16 -11
-34 -23 -17 -12 -34 -19 -36 -15 -9 14 20 107 34 111 11 4 12 2 2 -9 -7 -7
-13 -17 -13 -22 0 -15 21 5 30 29 5 13 12 24 15 24 2 0 0 -12 -6 -27z m-89 -8
c0 -7 -11 -20 -25 -29 -15 -10 -25 -12 -25 -6 0 6 -4 8 -10 5 -15 -9 0 28 17
42 17 14 43 7 43 -12z m-1047 8 c-47 -2 -85 -9 -91 -16 -8 -9 19 -13 119 -15
80 -2 129 1 129 7 0 5 -17 12 -37 14 l-38 4 40 1 c36 1 42 -2 58 -34 28 -57
24 -66 -29 -63 -27 2 -48 -2 -53 -9 -4 -7 -40 -13 -95 -14 -100 -3 -116 7
-116 72 0 54 12 60 110 58 l85 -2 -82 -3z m217 -75 c0 -7 -9 5 -20 27 -11 22
-20 44 -20 49 0 6 9 -6 20 -27 11 -20 20 -42 20 -49z m19 63 c11 -7 11 -16 3
-47 l-11 -39 5 38 c4 32 2 39 -18 47 -13 5 -16 9 -8 9 8 0 21 -3 29 -8z m88
-147 c-5 -6 -57 91 -57 106 0 7 14 -14 30 -45 17 -32 29 -60 27 -61z m729 69
c-6 -47 -37 -93 -63 -93 -18 0 -17 10 10 67 29 63 36 73 49 73 7 0 9 -16 4
-47z m-704 7 c28 -18 38 -32 37 -50 -1 -24 -1 -24 -7 -3 -7 23 -52 63 -71 63
-6 0 -11 5 -11 11 0 13 4 11 52 -21z m-97 -35 c-4 -25 -9 -44 -12 -41 -2 2 -1
25 2 51 4 25 9 44 12 41 2 -2 1 -25 -2 -51z m95 -28 c0 -12 0 -11 -24 28 l-17
30 20 -24 c12 -13 21 -28 21 -34z m591 -29 c-29 -60 -61 -115 -61 -103 -1 13
74 155 78 150 2 -2 -6 -23 -17 -47z m3 -47 l-28 -26 22 26 c12 14 22 32 23 40
0 11 2 11 6 0 3 -7 -7 -25 -23 -40z m-710 -86 l-7 -75 61 0 c33 0 63 4 66 8 3
5 -15 28 -39 52 l-44 43 -3 -33 c-2 -19 -10 -36 -18 -38 -12 -4 -13 -2 -4 9
13 17 27 82 16 75 -4 -2 -9 4 -9 15 -1 14 17 0 62 -48 56 -60 62 -69 47 -80
-9 -7 -44 -13 -79 -13 l-63 0 0 34 c0 41 11 126 17 126 2 0 1 -34 -3 -75z
m485 -41 c36 -21 38 -40 10 -95 -23 -46 -35 -46 -66 0 -22 32 -58 139 -50 147
2 3 12 -22 21 -55 15 -54 48 -111 64 -111 10 0 42 59 42 76 0 16 -16 19 -25 4
-3 -5 -17 -9 -30 -8 -24 2 -31 21 -26 66 1 6 -3 12 -8 12 -6 0 -16 10 -22 23
-10 18 -6 16 23 -9 20 -18 50 -40 67 -50z m-564 -24 c9 -16 12 -30 7 -30 -5 0
-15 12 -22 28 -9 19 -15 22 -17 12 -4 -17 -144 -65 -165 -57 -8 4 -7 6 4 6 30
2 148 43 148 52 0 12 -2 12 -91 -13 -75 -20 -79 -23 -79 -49 0 -15 5 -31 11
-35 16 -10 130 17 136 33 3 8 20 12 47 11 40 -1 40 -1 6 -5 -19 -2 -40 -10
-45 -18 -6 -7 -22 -15 -35 -18 -21 -4 -20 -5 7 -6 27 -1 36 -8 53 -41 23 -44
24 -43 -45 -59 l-40 -9 57 -1 c55 -1 58 -2 74 -37 20 -42 11 -54 -43 -54 -17
0 -33 -4 -35 -9 -5 -14 -149 -83 -163 -77 -11 4 -11 13 1 52 16 55 35 78 84
106 26 14 29 17 10 13 -76 -19 -70 -22 -70 32 l0 49 48 16 47 16 -55 -2 -55
-1 -3 40 -3 40 78 22 c111 30 129 29 148 -7z m689 16 c-23 -7 -46 -16 -53 -20
-6 -4 -11 -4 -11 -1 0 9 62 34 85 34 11 0 2 -6 -21 -13z m280 -6 c61 -23 146
-93 146 -120 0 -10 8 -20 18 -22 24 -7 62 -85 62 -128 0 -55 -55 -97 -62 -47
-2 17 -15 26 -50 37 -41 13 -48 19 -48 42 0 14 6 29 13 32 6 3 3 5 -8 3 -11
-1 -21 -12 -25 -25 -4 -20 -12 -24 -55 -26 -64 -4 -120 -33 -173 -90 -44 -48
-62 -57 -62 -31 0 19 40 84 66 107 30 26 106 58 141 58 40 0 69 26 52 46 -6 8
-9 25 -7 38 3 15 0 27 -8 30 -17 6 -19 36 -3 36 7 0 31 -16 55 -35 51 -42 69
-29 22 15 -29 28 -30 30 -5 15 15 -10 27 -13 27 -9 0 13 -81 62 -115 69 -24 5
-22 2 13 -14 62 -30 51 -33 -18 -5 -33 13 -74 25 -92 25 -32 2 -32 2 7 9 22 4
43 8 47 9 4 0 32 -8 62 -19z m-272 -15 c-23 -7 -50 -19 -59 -27 -14 -11 -16
-11 -9 0 10 17 64 41 91 41 11 0 1 -6 -23 -14z m-446 -33 c15 -9 -3 -142 -19
-142 -13 0 -137 120 -137 132 0 4 24 9 53 11 28 2 61 4 72 5 11 1 25 -2 31 -6z
m-219 -34 c8 -6 13 -34 13 -75 0 -51 3 -65 18 -70 9 -4 28 -17 42 -30 13 -14
62 -49 107 -79 46 -30 83 -58 83 -62 -1 -10 -170 -63 -180 -57 -4 3 -15 25
-24 50 -8 25 -11 43 -6 40 5 -3 11 -18 15 -34 11 -50 23 -52 106 -23 l76 27
-55 34 c-30 19 -79 54 -108 77 l-54 44 5 -48 4 -47 -10 50 c-12 57 -17 65 -28
46 -6 -9 -12 -2 -21 25 -7 22 -21 56 -32 77 -11 22 -17 44 -15 51 6 15 47 18
64 4z m574 -17 c-10 -18 -7 -21 29 -31 22 -6 40 -12 40 -13 0 -2 -88 -1 -102
2 -5 0 -8 6 -8 12 0 5 5 7 12 3 8 -5 9 -2 5 10 -4 9 -3 14 2 11 5 -3 13 4 16
16 4 11 9 18 12 16 2 -3 0 -14 -6 -26z m-456 -43 l60 -62 -67 58 c-36 31 -68
53 -70 49 -3 -4 -6 -29 -7 -54 l-2 -46 70 -7 c39 -4 75 -4 81 -1 5 3 10 1 10
-6 0 -8 -21 -9 -77 -4 -43 4 -81 9 -85 12 -9 5 -11 85 -2 107 10 27 27 18 89
-46z m536 -60 c-16 -44 -15 -46 22 -57 17 -5 24 -10 14 -10 -35 -2 -59 19 -53
44 3 13 3 31 -1 41 -5 14 -9 11 -19 -17 -18 -50 -17 -65 9 -78 22 -11 22 -11
-3 -5 -35 9 -35 10 -23 57 6 23 11 43 10 44 -1 1 -14 4 -29 8 -33 8 -31 13
-53 -176 -16 -134 -16 -137 4 -175 12 -21 21 -43 21 -49 -1 -5 -12 10 -25 35
-13 25 -24 38 -24 30 0 -8 6 -26 14 -40 8 -14 14 -29 14 -35 0 -5 -9 7 -20 27
l-19 38 -78 -46 c-42 -25 -80 -49 -85 -53 -8 -8 58 -209 73 -225 6 -5 41 9 87
36 43 24 86 47 96 51 24 9 22 20 -15 88 -31 56 -32 61 -16 73 20 15 49 56 92
130 26 45 28 55 23 116 -6 67 -5 68 19 66 13 0 24 -5 24 -10 0 -4 -8 -6 -17
-4 -16 4 -18 -4 -18 -71 0 -74 -1 -78 -49 -153 -26 -42 -55 -79 -63 -82 -12
-5 -9 -16 16 -61 23 -41 31 -67 30 -102 0 -35 -3 -42 -8 -28 -5 11 -6 24 -4
28 6 11 -75 -31 -103 -52 -24 -19 -21 -41 5 -34 10 3 22 -1 26 -7 5 -8 2 -10
-11 -7 -15 5 -24 -4 -40 -39 -12 -24 -20 -44 -18 -44 2 0 24 10 50 22 35 18
50 33 66 66 25 55 34 50 10 -6 -14 -34 -28 -47 -70 -69 -61 -31 -81 -26 -94
23 -6 23 -4 32 13 46 12 10 25 15 30 12 5 -3 9 0 9 5 0 14 -13 14 -45 -1 -14
-6 -28 -9 -30 -6 -10 10 -92 248 -84 243 4 -3 9 -1 11 3 1 4 42 31 89 60 97
58 88 40 105 217 10 105 -2 74 -15 -39 -6 -55 -13 -102 -15 -104 -6 -5 -86 37
-86 46 1 21 98 182 103 170 3 -8 6 -6 7 7 l1 20 9 -20 c7 -16 9 -14 9 15 2 71
8 78 62 76 34 -1 50 -6 53 -16 2 -8 5 -4 6 10 1 14 4 19 7 12 3 -7 0 -27 -6
-44z m-427 -39 c12 -11 -11 -89 -26 -89 -11 0 -108 68 -108 76 0 7 19 -5 63
-39 42 -33 53 -29 63 22 l7 33 -76 -4 c-46 -2 -78 1 -81 7 -4 13 145 7 158 -6z
m236 -6 c-12 -16 -48 -56 -81 -89 -46 -48 -55 -63 -43 -68 33 -13 44 -4 88 74
26 44 49 80 52 80 2 0 -17 -40 -43 -88 -43 -80 -50 -88 -73 -84 -23 4 -24 3
-6 -10 18 -14 17 -17 -14 -72 -18 -31 -29 -60 -26 -64 7 -6 77 28 115 58 21
15 21 15 -8 33 l-30 18 -20 -40 c-12 -22 -26 -43 -33 -47 -9 -6 30 72 47 94 6
7 75 -33 75 -44 0 -18 -121 -86 -143 -80 -13 3 -17 0 -13 -10 3 -8 1 -14 -4
-14 -19 0 -10 32 25 91 19 33 35 62 35 64 0 8 -64 24 -69 17 -20 -30 -176
-202 -183 -202 -5 0 32 45 81 101 50 55 91 105 91 111 0 6 13 7 33 3 29 -6 30
-6 13 7 -17 13 -13 20 64 101 83 87 110 111 70 60z m-440 -71 c0 -4 -17 -6
-37 -4 -59 5 -63 10 -10 11 26 1 47 -3 47 -7z m-83 -32 c14 -11 31 -20 37 -20
6 0 0 9 -14 20 -14 11 -20 20 -15 19 15 0 45 -25 45 -38 0 -17 -29 -13 -60 9
l-28 20 -52 -29 c-29 -16 -48 -31 -42 -35 14 -8 -7 -76 -24 -76 -22 0 -25 -19
-6 -29 15 -8 39 1 121 46 55 30 101 61 101 68 0 7 6 15 14 18 11 4 11 1 2 -19
-7 -16 -47 -44 -115 -80 -89 -49 -106 -55 -127 -45 -22 9 -23 15 -18 58 8 57
13 63 84 102 66 36 65 36 97 11z m303 -80 c-11 -7 -12 -10 -2 -10 8 0 -24 -42
-70 -93 -46 -52 -88 -102 -95 -113 -10 -17 -11 -17 -6 6 4 21 3 22 -7 10 -10
-13 -11 -12 -6 3 3 10 6 24 7 30 0 7 4 4 8 -6 5 -15 20 -3 84 69 42 49 74 90
72 92 -2 2 -26 -4 -54 -13 -48 -16 -63 -27 -67 -50 -4 -19 -33 -80 -34 -69 0
6 7 31 16 57 14 42 20 48 67 65 29 11 59 22 67 25 25 9 36 7 20 -3z m501 -82
c33 -18 59 -40 59 -48 0 -9 -13 -42 -30 -75 -35 -71 -35 -75 -12 -70 14 2 18
-4 20 -26 1 -18 -3 -29 -10 -29 -24 0 -39 16 -32 33 5 13 2 16 -11 11 -20 -8
-125 91 -125 118 0 21 17 33 23 16 3 -10 7 -10 17 -1 14 13 4 37 -12 27 -5 -4
1 12 14 35 12 22 27 41 32 41 5 0 35 -15 67 -32z m-663 8 c-2 -1 -12 -8 -22
-16 -18 -14 -19 -14 -7 8 7 12 17 20 22 16 6 -3 9 -7 7 -8z m-138 -62 c0 -20
-5 -24 -27 -23 -24 2 -25 2 -5 6 13 3 22 12 22 22 0 17 -2 18 -34 2 -20 -10
-29 -19 -22 -23 8 -6 8 -8 -1 -8 -28 0 -20 20 15 38 43 23 52 20 52 -14z
m1145 1 c-16 -13 -32 -22 -35 -19 -3 3 8 17 24 30 15 14 31 23 34 20 3 -3 -8
-17 -23 -31z m81 -19 c0 -28 -3 -42 -8 -34 -4 7 -5 25 -2 40 3 14 0 29 -5 33
-6 3 -11 1 -11 -6 0 -7 -3 -10 -6 -6 -9 9 6 29 19 24 7 -2 12 -25 13 -51z
m-1108 17 c-4 -22 -58 -31 -58 -10 0 20 10 27 37 27 18 0 24 -5 21 -17z m1079
-10 c-4 -3 -24 -14 -45 -24 l-37 -18 41 6 c23 3 44 1 47 -3 3 -5 -14 -9 -36
-9 -55 0 -61 13 -17 36 34 19 60 25 47 12z m-248 -27 c0 -6 -5 -20 -10 -31 -8
-17 -8 -15 -4 8 3 15 1 27 -4 27 -5 0 -11 -12 -13 -27 -3 -25 -4 -25 -9 8 -4
33 -3 35 18 31 13 -2 23 -9 22 -16z m-59 -21 c0 -31 -3 -35 -25 -35 -29 0 -30
2 -10 40 21 40 35 38 35 -5z m-590 11 c-28 -11 -31 -14 -15 -17 11 -3 -18 -14
-67 -28 -88 -23 -88 -23 -108 -68 -11 -25 -20 -53 -20 -62 1 -17 33 -61 45
-61 7 0 226 109 234 116 2 2 -2 24 -9 50 -9 29 -21 49 -34 54 l-21 9 22 0 c17
1 25 -9 37 -46 24 -69 21 -78 -26 -99 -41 -18 -202 -103 -204 -107 -1 -1 -13
12 -28 29 -31 38 -32 53 -7 118 16 44 24 51 57 61 25 7 33 13 24 17 -9 3 3 10
30 17 25 7 56 16 70 21 40 14 59 10 20 -4z m-753 -10 c-17 -13 -16 -15 9 -45
14 -17 32 -31 40 -31 17 0 18 -16 2 -26 -7 -4 -8 -3 -4 4 4 7 1 12 -8 12 -16
0 -66 59 -66 78 0 9 14 16 40 21 3 0 -3 -6 -13 -13z m278 -7 c88 -7 166 -15
174 -19 7 -4 -11 -6 -40 -4 -40 3 -48 1 -29 -5 21 -8 18 -9 -20 -9 -34 -1 -40
2 -25 8 11 5 18 9 15 10 -3 1 -79 8 -170 15 -91 7 -142 13 -115 14 28 0 122
-4 210 -10z m1199 -5 c4 -10 2 -13 -7 -7 -6 4 -18 8 -25 9 -26 4 -25 14 0 14
14 0 29 -7 32 -16z m-1270 -71 c115 -15 125 -15 157 1 46 24 160 59 167 52 3
-3 -3 -6 -14 -7 -19 0 -19 -1 0 -8 14 -5 1 -13 -55 -31 -99 -31 -140 -33 -272
-15 -85 12 -121 22 -149 40 -51 34 -49 42 2 10 32 -20 68 -29 164 -42z m-86
60 c-16 -2 -40 -2 -55 0 -16 2 -3 4 27 4 30 0 43 -2 28 -4z m1302 -3 c-12 -7
-12 -12 -2 -22 9 -9 12 -9 12 1 0 8 6 11 16 7 8 -3 24 -1 35 4 13 8 19 7 19 0
0 -6 -14 -13 -30 -17 -42 -8 -50 -25 -10 -21 20 2 37 11 44 23 6 11 15 23 21
27 19 14 17 -1 -5 -31 -26 -38 -76 -43 -103 -10 -19 22 -16 49 5 49 9 0 9 -3
-2 -10z m238 -22 c4 -34 1 -34 -55 -7 -51 25 -47 41 10 37 37 -3 42 -6 45 -30z
m-1375 15 c-18 -2 -48 -2 -65 0 -18 2 -4 4 32 4 36 0 50 -2 33 -4z m1067 -37
c0 -7 -7 -27 -16 -42 -15 -28 -15 -10 1 29 4 10 3 17 -4 17 -6 0 -14 -14 -18
-30 -3 -17 -8 -29 -10 -26 -3 2 -2 18 2 35 5 22 12 31 26 31 10 0 19 -6 19
-14z m-812 -9 c-7 -8 -22 -12 -33 -9 -18 5 -18 6 5 13 38 11 42 10 28 -4z m65
-9 c-6 -7 -14 -28 -18 -45 -4 -22 -12 -33 -23 -33 -14 0 -14 2 -3 9 8 5 10 14
6 21 -5 9 -4 11 3 6 8 -5 12 1 12 16 0 13 5 29 12 36 15 15 24 7 11 -10z m912
-20 c-5 -21 -5 -21 9 2 l16 25 -6 -31 c-3 -17 -1 -41 5 -53 10 -17 9 -22 -4
-27 -9 -4 -21 -2 -27 4 -12 12 -13 75 -3 92 11 18 16 10 10 -12z m-1437 -5
c-10 -2 -18 -11 -18 -20 0 -12 3 -13 14 -4 17 14 80 6 113 -15 12 -8 30 -14
40 -14 14 1 13 4 -7 16 -17 10 -18 13 -5 9 46 -16 60 -16 33 0 -16 8 -28 17
-28 18 0 1 30 3 67 5 37 1 64 0 61 -3 -3 -3 -27 -6 -53 -7 -34 0 -43 -3 -32
-10 9 -5 29 -8 44 -6 20 2 28 -2 28 -12 0 -8 -4 -15 -10 -15 -21 -1 -80 -38
-67 -43 7 -2 -20 -26 -60 -54 l-72 -50 -45 13 c-60 16 -78 29 -59 43 8 6 17
19 21 29 3 9 14 17 22 17 9 0 14 3 12 8 -3 4 11 8 32 8 l36 2 -47 -16 c-26 -8
-48 -22 -51 -32 -7 -29 72 -20 115 14 20 15 47 28 60 30 27 3 100 46 78 46 -8
0 -44 -9 -80 -20 -74 -23 -88 -24 -46 -5 29 12 29 13 8 24 -26 14 -91 18 -114
7 -14 -6 -18 -4 -18 11 0 24 8 33 29 32 13 -1 13 -2 -1 -6z m445 1 c3 -3 1
-17 -5 -30 -10 -22 -15 -24 -58 -18 -38 5 -48 3 -53 -11 -4 -9 -10 -14 -14
-12 -5 2 -27 -20 -51 -50 -23 -29 -37 -52 -30 -51 7 2 28 22 47 46 19 23 36
40 39 37 3 -3 -10 -21 -28 -40 -18 -19 -30 -38 -26 -42 4 -4 18 6 32 22 l26
30 -21 -32 c-17 -25 -27 -31 -54 -29 -17 1 -45 -2 -62 -7 -16 -5 -46 -13 -65
-17 -34 -7 -33 -8 16 -9 27 0 55 4 61 10 8 8 16 7 30 -2 34 -21 66 -3 101 57
21 37 27 54 17 50 -8 -3 -15 0 -15 5 0 6 9 9 20 6 25 -6 26 8 3 22 -20 12 -13
14 11 5 24 -9 20 -23 -27 -94 -36 -56 -47 -65 -75 -68 -18 -2 -39 2 -47 8 -9
8 -15 8 -20 0 -9 -15 -118 -13 -113 3 3 6 13 13 24 15 57 8 101 30 140 72 24
25 44 51 44 59 0 7 6 11 15 7 10 -3 15 1 15 11 0 13 8 15 50 10 44 -5 51 -3
61 15 10 19 9 20 -7 13 -11 -5 -37 -9 -59 -10 -34 -2 -35 -2 -5 2 19 2 39 9
45 14 10 10 29 12 38 3z m-458 -56 c11 1 38 5 60 7 l40 4 -45 -10 c-80 -19
-85 -18 -87 21 -1 34 -1 34 6 5 5 -22 12 -29 26 -27z m317 45 c-6 -2 -10 -8
-7 -13 3 -4 -1 -13 -9 -19 -11 -9 -12 -6 -8 14 2 15 11 25 21 24 10 0 11 -2 3
-6z m387 -67 c-25 -24 -52 -45 -62 -47 -12 -3 -14 -8 -7 -19 8 -12 21 -4 71
45 l62 60 -52 -62 c-61 -72 -75 -79 -88 -50 -11 25 -6 50 8 41 6 -3 30 13 54
35 59 55 70 52 14 -3z m403 -47 c-12 -12 -62 -22 -62 -13 0 5 7 29 15 54 10
29 14 34 11 15 -3 -16 -8 -38 -11 -48 -6 -15 -4 -16 16 -8 13 5 23 13 23 18
-14 79 -14 79 1 33 8 -24 12 -47 7 -51z m-72 76 c0 -6 -56 -35 -67 -35 -9 0
48 38 60 39 4 1 7 -1 7 -4z m390 -45 c0 -32 -23 -42 -34 -14 -4 11 -16 15 -43
12 -63 -5 -54 28 11 42 43 9 66 -5 66 -40z m-1174 -15 c-28 -25 -52 -42 -55
-39 -6 6 80 83 94 83 6 0 -12 -20 -39 -44z m207 12 c6 4 8 1 5 -8 -50 -120
-49 -119 -84 -119 -39 0 -48 27 -12 32 16 2 30 19 48 56 13 29 26 48 28 42 2
-5 9 -7 15 -3z m921 -55 c11 -39 2 -51 -21 -29 -11 9 -30 14 -48 11 -29 -4
-29 -3 4 8 29 10 35 9 47 -7 16 -22 19 -3 4 25 -10 19 -12 19 -48 2 -20 -9
-40 -21 -44 -27 -4 -6 -8 -2 -8 8 0 9 6 17 14 17 7 0 27 7 42 15 37 19 47 15
58 -23z m-196 14 c-7 -8 -16 -12 -21 -9 -11 7 2 23 19 23 12 0 12 -2 2 -14z
m48 -42 c-10 -19 -15 -23 -16 -12 0 9 4 19 10 23 5 3 6 13 3 23 -5 13 -3 14 6
6 10 -9 10 -18 -3 -40z m-88 30 c-4 -3 -21 -7 -40 -10 -26 -3 -29 -2 -13 5 22
11 62 14 53 5z m66 -14 c-14 -14 -154 -26 -154 -14 0 5 17 8 38 6 20 -2 55 1
77 6 22 6 42 10 45 11 2 1 -1 -4 -6 -9z m-4 -37 c0 -15 -2 -16 -10 -3 -7 11
-12 12 -18 3 -8 -12 -132 -14 -132 -1 0 4 27 5 60 3 36 -3 60 -1 60 5 0 6 9
10 20 10 12 0 20 -7 20 -17z m80 8 l-25 -7 22 -12 c12 -7 28 -12 37 -12 8 0
16 -10 19 -22 3 -21 4 -21 12 -5 5 13 1 25 -15 43 -13 13 -18 24 -12 24 17 0
44 -46 40 -67 -5 -25 -38 -30 -38 -5 0 13 -10 22 -32 28 -43 13 -51 44 -11 43
28 -1 28 -1 3 -8z m-85 -78 c-3 -16 -13 -35 -21 -44 -16 -18 -18 -45 -4 -54
14 -9 13 -35 -2 -35 -21 0 -48 32 -48 57 0 25 56 103 73 103 5 0 6 -12 2 -27z"/>
<path d="M1470 2555 c0 -8 5 -15 10 -15 6 0 10 7 10 15 0 8 -4 15 -10 15 -5 0
-10 -7 -10 -15z"/>
<path d="M1358 2226 l-37 -32 35 -53 c19 -28 39 -49 44 -46 11 7 12 121 2 146
-6 15 -12 12 -44 -15z"/>
<path d="M911 2179 c-2 -90 30 -125 167 -184 l77 -34 12 22 c11 20 7 25 -40
53 -29 17 -57 38 -64 45 -56 65 -138 149 -143 149 -4 0 -8 -23 -9 -51z m89
-73 c0 -3 -9 3 -20 14 -11 11 -20 25 -20 31 0 7 9 0 20 -14 11 -14 20 -28 20
-31z"/>
<path d="M1251 2154 c-7 -26 -11 -47 -9 -48 2 -1 26 -19 54 -39 49 -35 64 -38
64 -11 0 12 -87 144 -95 144 -1 0 -8 -21 -14 -46z"/>
<path d="M1280 1374 c0 -6 18 -28 40 -49 22 -21 40 -34 40 -27 0 7 8 12 18 13
10 0 12 3 5 6 -7 2 -13 14 -14 26 0 12 -3 16 -6 10 -8 -20 -40 -15 -63 9 -11
12 -20 17 -20 12z"/>
<path d="M1502 1330 c0 -14 3 -34 8 -45 l9 -20 -1 20 c0 11 -4 31 -8 45 l-8
25 0 -25z"/>
<path d="M1201 2053 c1 -49 14 -65 72 -88 l57 -24 6 25 c4 14 5 26 3 28 -18
14 -129 86 -133 86 -4 0 -6 -12 -5 -27z"/>
<path d="M2055 2005 c27 -67 44 -123 45 -145 1 -15 13 -34 29 -47 l29 -23 10
40 c8 34 7 43 -15 74 -13 20 -26 36 -28 36 -2 0 -2 -17 0 -37 l5 -38 -9 34
c-5 19 -7 39 -5 45 3 7 -12 27 -32 46 -26 25 -35 29 -29 15z"/>
<path d="M890 1996 c0 -70 130 -139 268 -140 46 -1 49 2 27 43 -11 22 -27 32
-75 45 -34 10 -90 30 -125 46 -47 21 -65 25 -68 16 -5 -13 55 -42 133 -65 l35
-11 -37 5 c-21 3 -62 17 -92 30 -45 20 -53 27 -49 45 3 11 0 20 -6 20 -6 0
-11 -15 -11 -34z"/>
<path d="M1200 1956 c0 -1 9 -26 19 -56 15 -41 26 -57 45 -63 40 -13 56 -2 56
36 0 32 -4 35 -60 60 -33 14 -60 25 -60 23z"/>
<path d="M1940 1898 c0 -2 9 -29 20 -61 11 -31 20 -74 20 -95 0 -36 22 -82 39
-82 4 0 14 24 21 54 12 51 11 56 -9 85 -13 17 -27 28 -33 25 -7 -5 -8 -2 -3 5
4 8 -5 24 -24 43 -17 17 -31 29 -31 26z"/>
<path d="M870 1865 c0 -28 74 -91 124 -105 53 -15 160 -19 172 -7 5 5 2 20 -6
34 -13 22 -34 30 -150 59 -74 19 -136 34 -137 34 -2 0 -3 -7 -3 -15z m251 -62
c4 6 9 5 13 -1 3 -5 0 -12 -7 -14 -13 -5 -212 43 -222 53 -3 3 43 -6 102 -21
65 -16 111 -23 114 -17z"/>
<path d="M1200 1791 c4 -16 6 -32 3 -35 -5 -5 62 -26 83 -26 12 0 25 58 15 64
-3 2 -21 7 -38 11 -26 5 -33 3 -33 -9 0 -8 -5 -18 -10 -21 -7 -4 -9 2 -4 19 5
20 2 26 -9 26 -12 0 -14 -6 -7 -29z"/>
<path d="M2127 1753 c-4 -3 -7 -15 -7 -25 0 -10 -5 -18 -11 -18 -5 0 -7 5 -4
10 3 6 3 16 -2 23 -5 7 -10 -3 -14 -28 -4 -22 -6 -41 -4 -43 9 -9 65 31 65 46
0 22 -14 44 -23 35z"/>
<path d="M865 1728 c12 -43 50 -66 117 -73 64 -6 121 -7 148 -4 8 1 25 -1 38
-5 l22 -7 -20 34 c-20 34 -21 34 -108 40 -48 4 -109 13 -137 22 -65 19 -68 19
-60 -7z m181 -37 l99 -10 -98 5 c-86 4 -167 22 -167 38 0 3 15 -1 33 -9 19 -8
78 -18 133 -24z"/>
<path d="M1192 1712 c2 -4 14 -28 25 -54 20 -43 46 -68 72 -68 11 0 37 77 29
86 -9 9 -130 43 -126 36z"/>
<path d="M1980 1615 c-17 -21 -8 -28 15 -11 11 8 14 15 8 19 -6 4 -16 0 -23
-8z"/>
<path d="M905 1579 c-3 -4 -12 -6 -20 -2 -21 8 -20 -41 2 -58 20 -17 164 -14
174 3 4 7 27 11 53 9 49 -2 53 2 33 34 -11 18 -24 20 -125 21 -62 1 -115 -2
-117 -7z"/>
<path d="M1987 1514 c-15 -31 -26 -58 -25 -59 2 -2 13 5 25 15 19 15 46 100
32 100 -2 0 -17 -25 -32 -56z"/>
<path d="M1637 1271 c6 -22 29 -35 45 -25 7 4 1 14 -13 25 -31 24 -38 24 -32
0z"/>
<path d="M973 1133 c-41 -14 -43 -17 -43 -55 0 -37 2 -40 23 -33 12 4 50 14
84 24 l62 16 -20 33 c-23 36 -41 39 -106 15z m77 -19 c0 -2 -12 -4 -27 -4 -21
0 -24 3 -14 9 13 8 41 5 41 -5z m-82 -23 c-8 -12 -18 -18 -21 -14 -4 3 0 15
10 25 21 24 29 15 11 -11z"/>
<path d="M984 1021 c-37 -23 -74 -68 -74 -90 0 -10 13 -1 34 24 19 22 32 45
29 50 -3 6 0 5 7 -2 10 -9 6 -20 -21 -52 -18 -23 -38 -41 -45 -41 -6 0 -15 -7
-18 -16 -5 -12 -1 -14 17 -8 42 13 137 64 137 74 0 6 17 10 38 10 49 0 55 6
36 41 -13 26 -20 29 -62 29 -28 0 -59 -8 -78 -19z m116 -1 c0 -5 -15 -9 -32
-9 l-33 1 30 8 c17 4 31 8 33 9 1 0 2 -3 2 -9z"/>
<path d="M2090 1181 c0 -5 6 -11 14 -14 9 -4 12 -14 9 -26 -3 -12 0 -28 7 -36
26 -32 -7 -65 -68 -65 -39 0 -119 -48 -156 -93 -53 -65 -44 -71 18 -11 41 40
68 57 111 69 31 10 68 15 81 12 20 -3 24 0 24 18 0 13 11 30 26 40 15 9 24 12
20 7 -10 -17 28 -34 42 -20 9 9 12 9 12 0 0 -7 -5 -12 -11 -12 -6 0 3 -12 20
-26 17 -14 29 -30 26 -34 -3 -5 -3 -21 1 -35 6 -25 7 -25 25 -9 25 22 24 65
-1 115 -27 52 -89 78 -74 31 4 -11 3 -13 -3 -6 -4 6 -23 15 -41 19 -18 4 -37
16 -43 28 -9 20 -9 20 4 5 36 -45 114 -25 85 21 -7 12 -17 21 -22 21 -4 0 -3
-7 4 -15 13 -16 7 -45 -9 -45 -5 0 -28 16 -51 35 -45 37 -50 40 -50 26z m172
-98 c-8 -3 -6 -10 8 -21 27 -23 34 -63 16 -87 -15 -21 -18 -2 -3 22 10 15 -13
63 -30 63 -14 0 -17 12 -6 23 3 4 11 7 17 6 6 0 5 -3 -2 -6z"/>
<path d="M2177 1043 c-19 -19 -5 -41 33 -51 48 -12 50 -4 10 31 -33 30 -34 30
-43 20z"/>
<path d="M1279 1203 l-46 -4 61 -59 c57 -55 61 -58 68 -37 3 12 6 32 7 45 1
20 -4 22 -49 22 -27 0 -50 3 -50 8 0 4 21 7 47 7 27 0 49 5 51 10 3 11 -22 14
-89 8z"/>
<path d="M1103 1163 c3 -10 17 -45 31 -78 l26 -60 0 72 c0 39 -4 75 -10 78 -5
3 -10 0 -10 -7 0 -8 -3 -9 -8 -3 -13 19 -35 17 -29 -2z"/>
<path d="M1647 973 c-3 -10 -22 -46 -41 -81 l-36 -62 32 -20 33 -20 6 23 c9
33 22 177 16 177 -3 0 -7 -8 -10 -17z"/>
<path d="M1596 387 c-14 -10 -15 -18 -7 -40 13 -34 17 -34 36 3 22 43 18 61
-5 20 -11 -19 -19 -31 -20 -27 0 5 5 17 11 29 13 25 8 31 -15 15z"/>
<path d="M937 853 c-11 -11 -8 -63 4 -63 6 0 9 9 6 20 -3 11 -2 18 3 15 4 -3
10 1 13 9 8 21 -11 35 -26 19z"/>
<path d="M1826 763 c-3 -4 -6 -9 -6 -13 0 -8 64 -37 95 -43 15 -4 13 -5 -7 -6
-15 0 -42 8 -62 19 -24 15 -36 18 -41 9 -4 -6 -2 -15 5 -19 20 -12 7 -45 -18
-44 -12 0 -22 -2 -22 -6 0 -8 109 -115 112 -109 12 18 68 141 68 149 0 12
-116 71 -124 63z"/>
<path d="M1907 534 c-8 -8 1 -24 14 -24 5 0 9 7 9 15 0 15 -12 20 -23 9z"/>
<path d="M1175 690 c-3 -5 3 -10 14 -10 12 0 21 5 21 10 0 6 -6 10 -14 10 -8
0 -18 -4 -21 -10z"/>
<path d="M1963 635 c-9 -20 -8 -25 3 -25 8 0 14 10 14 25 0 31 -2 31 -17 0z"/>
<path d="M1310 620 c-20 -6 -21 -8 -5 -8 11 0 31 4 45 8 20 6 21 8 5 8 -11 0
-31 -4 -45 -8z"/>
<path d="M1078 573 c-27 -8 -48 -18 -48 -22 0 -7 109 25 119 35 8 8 -24 2 -71
-13z"/>
<path d="M2260 591 c39 -19 45 -19 37 4 -4 9 -18 15 -39 15 l-33 -1 35 -18z"/>
<path d="M2157 493 c-4 -6 0 -19 8 -29 11 -15 14 -16 15 -4 0 21 -16 44 -23
33z"/>
<path d="M829 398 c-38 -28 -52 -32 -102 -32 -63 0 -63 -7 0 -25 41 -11 43
-11 107 33 35 24 62 47 59 50 -11 10 -19 7 -64 -26z"/>
<path d="M2095 465 c-5 -2 -22 -6 -37 -9 -41 -9 -34 -23 9 -18 27 3 40 0 50
-14 12 -17 13 -17 13 3 0 22 -19 42 -35 38z"/>
<path d="M1133 372 c-15 -37 -27 -52 -44 -55 -22 -4 -22 -4 4 -6 24 -1 30 5
48 46 11 25 18 50 17 55 -2 5 -13 -13 -25 -40z"/>
<path d="M1878 230 c-33 -46 -35 -61 -8 -85 23 -21 26 -14 8 15 -11 17 -9 27
10 61 31 53 25 58 -10 9z"/>
</g>
</svg>
